<?xml version="1.0" encoding="UTF-8" standalone="no"?>
<svg xmlns="http://www.w3.org/2000/svg" viewBox="0 0 261.493 261.507" height="261.507" width="261.493">
  <path d="M130.75 261.507C58.54 261.507 0 202.967 0 130.755 0 58.544 58.54.004 130.75.004c72.21 0 130.75 58.54 130.75 130.751 0 72.212-58.54 130.752-130.75 130.752m0-241.38c-61.097 0-110.628 49.53-110.628 110.627 0 61.098 49.53 110.629 110.627 110.629 61.096 0 110.627-49.531 110.627-110.629 0-61.097-49.53-110.627-110.627-110.627" />
  <path d="M173.213 223.407c-4.181-.003-19.418-27.122-21.466-34.853-4.282-16.189-3.36-23.028-3.104-25.214.784-6.676 7.261-10.012 7.653-19.04.121-2.788 1.53-16.727 2.653-27.615-2.773-.542-5.536-1.793-7.992-3.733 7.374 9.89-3.478 21.741-19.247 37.51-16.736 16.737-53.884 32.27-53.884 32.27s15.534-37.148 32.27-53.884c12.302-12.301 22.218-21.61 30.68-21.61 2.385 0 4.656.74 6.83 2.36-1.94-2.455-3.19-5.217-3.734-7.99-10.888 1.127-24.828 2.532-27.614 2.655-9.03.392-12.366 6.869-19.038 7.652-.768.09-2.11.264-4.23.264-3.915 0-10.483-.59-20.984-3.37-8.41-2.224-39.744-20.049-34.202-22.289 2.826-1.144 11.833-1.917 23.695-1.917 11.408 0 25.457.714 39.18 2.502 17.11 2.23 32.8 5.05 43.492 7.147.173-.575.381-1.133.63-1.676l-10.93-5.239s-8.73-10.018-7.799-10.709a.224.224 0 01.137-.04c1.37 0 8.354 7.985 9.026 8.895.517.172 3.478 1.16 6.593 2.196l-3.092-2.704s-4.232-15.674-3.13-16.043a.152.152 0 01.045-.007c1.161 0 5.001 13.63 5.33 14.608.755.662 3.304 1.655 6.49 3.492l-3.35-8.616s1.516-14.214 2.651-14.214l.027.002c1.142.228-.224 11.856-.514 13.304l5.56 8.53c1.586-.598 3.291-.892 5.042-.892 2.009 0 4.076.389 6.081 1.156-2.568-5.468-2.373-11.167 1.032-14.57 1.077-1.08 2.387-1.833 3.845-2.28a5.034 5.034 0 011.394-2.696 5.057 5.057 0 013.596-1.473c1.374 0 2.768.537 3.834 1.605a5.417 5.417 0 011.599 3.652c1.644-3.388 3.584-7.96 3.448-9.441-.316-3.352-4.204-9.285-4.24-9.345a.833.833 0 01.693-1.291c.271 0 .536.132.695.376.172.256 4.156 6.339 4.51 10.105.198 2.155-2.275 7.584-3.623 10.358a24 24 0 015.424 4.089 24.02 24.02 0 014.089 5.424c2.668-1.297 7.787-3.635 10.095-3.635.092 0 .18.003.262.011 3.766.355 9.85 4.339 10.104 4.508a.832.832 0 01-.913 1.39c-.06-.038-5.992-3.925-9.345-4.238a1.577 1.577 0 00-.163-.007c-1.63 0-6.01 1.863-9.281 3.452a5.408 5.408 0 013.653 1.6c2.09 2.087 2.147 5.412.132 7.427a5 5 0 01-2.693 1.396c-.45 1.46-1.204 2.77-2.282 3.847-1.877 1.878-4.45 2.778-7.301 2.778-2.317 0-4.817-.596-7.27-1.746 1.437 3.749 1.546 7.718.266 11.121 3.95 2.576 7.896 5.147 8.528 5.561 1.037-.206 7.267-.962 10.823-.962 1.421 0 2.417.12 2.481.445.23 1.141-14.21 2.683-14.21 2.683l-8.617-3.354c1.839 3.188 2.828 5.736 3.491 6.492.996.334 14.968 4.272 14.6 5.375-.041.128-.287.183-.688.183-3.08 0-15.352-3.314-15.352-3.314l-2.707-3.092c1.039 3.116 2.024 6.075 2.199 6.594.947.7 9.543 8.226 8.853 9.16-.036.05-.094.07-.176.07-1.508 0-10.532-7.865-10.532-7.865l-5.24-10.932a12.86 12.86 0 01-1.677.63c2.097 10.693 4.919 26.382 7.15 43.491 3.646 27.994 2.826 57.33.586 62.877-.18.446-.461.653-.827.653" />
  <text x="214.246" y="255.205" fontWeight="700" fontSize="24" fontFamily="sans-serif" letterSpacing="0" wordSpacing="0">
    <tspan x="214.246" y="255.205">
          TM
    </tspan>
  </text>
</svg>